<svg id="Something_Better" data-name="Something_Better" xmlns="http://www.w3.org/2000/svg" width="460" height="186.04" viewBox="0 0 460 186.04">
  <defs>
    <style>
      .sbcls-1 {
        fill: #2e2e2e;
      }

      .sbcls-1, .sbcls-2 {
        fill-rule: evenodd;
      }

      .sbcls-2 {
        fill: #005f88;
      }
    </style>
  </defs>
  <path id="we_believe_in" data-name="we believe in" class="sbcls-1" d="M205.671,1341.02l9.683-23.02H211.74l-6.115,15.73-6.579-16.8-6.579,16.8L186.352,1318h-3.614l9.776,23.02,6.532-16.48Zm33.081-13.27a9.746,9.746,0,0,0-3.22-7.29,10.427,10.427,0,0,0-7.435-3.02,10.7,10.7,0,0,0-10.656,10.68,10.14,10.14,0,0,0,3.127,7.51,11.088,11.088,0,0,0,3.382,2.28,11.541,11.541,0,0,0,4.633.83,9.7,9.7,0,0,0,5.328-1.69,10.4,10.4,0,0,0,3.915-4.62h-3.707a7.465,7.465,0,0,1-2.664,2.25,7.326,7.326,0,0,1-8.084-.9,6.972,6.972,0,0,1-2.548-4.32h17.929v-1.71Zm-3.428-1.07H220.869a7.233,7.233,0,0,1,.973-2.39,7.219,7.219,0,0,1,10.864-1.93A7.5,7.5,0,0,1,235.324,1326.68Zm23.583,11.74v-3.49c0.182,0.24.375,0.47,0.579,0.7a9.406,9.406,0,0,0,14.223,0,11.222,11.222,0,0,0,0-14.84,9.406,9.406,0,0,0-14.223,0c-0.2.23-.4,0.46-0.579,0.7v-17.87h-3.243v34.8h3.243Zm14.362-10.21a7.392,7.392,0,0,1-2.061,5.2,7.013,7.013,0,0,1-10.239,0,7.588,7.588,0,0,1,0-10.4,7.013,7.013,0,0,1,10.239,0A7.392,7.392,0,0,1,273.269,1328.21Zm28.262-.46a9.746,9.746,0,0,0-3.22-7.29,10.427,10.427,0,0,0-7.435-3.02,10.7,10.7,0,0,0-10.656,10.68,10.14,10.14,0,0,0,3.127,7.51,11.088,11.088,0,0,0,3.382,2.28,11.541,11.541,0,0,0,4.633.83,9.7,9.7,0,0,0,5.328-1.69,10.4,10.4,0,0,0,3.915-4.62H296.9a7.465,7.465,0,0,1-2.664,2.25,7.326,7.326,0,0,1-8.084-.9,6.972,6.972,0,0,1-2.548-4.32h17.929v-1.71Zm-3.428-1.07H283.648a7.233,7.233,0,0,1,.973-2.39,7.219,7.219,0,0,1,10.864-1.93A7.5,7.5,0,0,1,298.1,1326.68Zm11.537,11.74v-34.8H306.4v34.8h3.243Zm9.776-27.47a2.071,2.071,0,1,0,.6,1.46A2,2,0,0,0,319.416,1310.95Zm0.185,27.47V1318h-3.243v20.42H319.6Zm26.593-10.67a9.746,9.746,0,0,0-3.22-7.29,10.428,10.428,0,0,0-7.436-3.02,10.7,10.7,0,0,0-10.655,10.68,10.14,10.14,0,0,0,3.127,7.51,11.088,11.088,0,0,0,3.382,2.28,11.541,11.541,0,0,0,4.633.83,9.7,9.7,0,0,0,5.328-1.69,10.39,10.39,0,0,0,3.914-4.62h-3.706a7.465,7.465,0,0,1-2.664,2.25,7.326,7.326,0,0,1-8.084-.9,6.968,6.968,0,0,1-2.548-4.32h17.929v-1.71Zm-3.428-1.07H328.311a7.233,7.233,0,0,1,.973-2.39,7.219,7.219,0,0,1,10.864-1.93A7.5,7.5,0,0,1,342.766,1326.68Zm14.688,13.69,9.358-22.37h-3.521l-5.837,15.18L351.57,1318h-3.521Zm32.755-12.62a9.746,9.746,0,0,0-3.22-7.29,10.428,10.428,0,0,0-7.436-3.02,10.7,10.7,0,0,0-10.655,10.68,10.14,10.14,0,0,0,3.127,7.51,11.088,11.088,0,0,0,3.382,2.28,11.541,11.541,0,0,0,4.633.83,9.7,9.7,0,0,0,5.328-1.69,10.39,10.39,0,0,0,3.914-4.62h-3.706a7.465,7.465,0,0,1-2.664,2.25,7.326,7.326,0,0,1-8.084-.9,6.968,6.968,0,0,1-2.548-4.32h17.929v-1.71Zm-3.428-1.07H372.326a7.212,7.212,0,0,1,.973-2.39,7.219,7.219,0,0,1,10.864-1.93A7.5,7.5,0,0,1,386.781,1326.68Zm23.629-15.73a2.069,2.069,0,1,0,.6,1.46A2,2,0,0,0,410.41,1310.95Zm0.186,27.47V1318h-3.243v20.42H410.6Zm20.755,0h3.243v-12.76a8.534,8.534,0,0,0-1.853-5.73,6.593,6.593,0,0,0-2.27-1.72,8.356,8.356,0,0,0-3.521-.63,6.646,6.646,0,0,0-3.845,1.14,8.759,8.759,0,0,0-2.6,2.79V1318h-3.243v20.42h3.243v-8.54a11.427,11.427,0,0,1,1.46-6.19,6.472,6.472,0,0,1,2.107-2.07,6.4,6.4,0,0,1,3.382-.79,3.264,3.264,0,0,1,2.989,1.42,6.2,6.2,0,0,1,.9,3.41v12.76Z" transform="translate(-179.782 -1303.62)"/>
  <path id="Some" class="sbcls-1" d="M208.744,1403.75c-6.893,0-12.855-3.45-13.228-11.01H181.357c0.093,15.49,12.855,22.39,26.828,22.39,12.948,0,26.269-5.5,26.269-20.43,0-24.17-36.609-16.05-36.609-27.34,0-4.76,5.5-6.62,9.409-6.62,6.986,0,10.805,2.14,11.55,8.77h13.508c-0.466-14.47-12.2-20.25-25.245-20.25-11.551,0-23.66,6.16-23.66,19.22,0,23.42,36.608,15.49,36.608,27.8C220.015,1401.98,213.122,1403.75,208.744,1403.75Zm82.064-21.93c0,9.8-8.849,18.76-18.63,18.76s-18.631-8.96-18.631-18.76,8.85-18.66,18.631-18.66S290.808,1372.03,290.808,1381.82Zm13.973,0.1c0-17.55-15.091-32.66-32.6-32.66s-32.6,15.11-32.6,32.66,15.091,32.65,32.6,32.65S304.781,1399.46,304.781,1381.92Zm86.907,31.72-12.3-63.45H362.811l-13.134,44.51-13.228-44.51H319.868l-12.3,63.45h15.37l7.452-43.76,12.389,43.76h13.694l12.389-43.76,7.452,43.76h15.37Zm41.822-12.69H410.781v-12.78h21.8v-12.69h-21.8v-12.6H433.51v-12.69h-36.7v63.45h36.7v-12.69Z" transform="translate(-179.782 -1303.62)"/>
  <path id="thing" class="sbcls-2" d="M445.659,1374.6h11.53v39.37h7.338V1374.6h11.425v-6.83H464.527v-17.95h-7.338v17.95h-11.53v6.83Zm44.447,39.37v-19.32c0-6.42,1.1-11.31,3.3-14.64a12.561,12.561,0,0,1,4.77-4.31,16.687,16.687,0,0,1,7.652-1.52q4.716,0,6.76,3.2a14.062,14.062,0,0,1,2.044,7.72v28.87h7.338V1385.1q0-8.04-4.193-12.97a14.913,14.913,0,0,0-5.136-3.88,18.919,18.919,0,0,0-7.967-1.42,15.11,15.11,0,0,0-8.7,2.57,19.71,19.71,0,0,0-5.869,6.31v-40.48h-7.338v78.74h7.338Zm48.221-62.15a4.688,4.688,0,1,0,1.363,3.3A4.5,4.5,0,0,0,538.327,1351.82Zm0.419,62.15v-46.2h-7.337v46.2h7.337Zm40.671,0h7.337V1385.1q0-8.04-4.193-12.97a14.894,14.894,0,0,0-5.136-3.88,18.914,18.914,0,0,0-7.966-1.42,15.11,15.11,0,0,0-8.7,2.57,19.713,19.713,0,0,0-5.87,6.31v-7.94h-7.337v46.2h7.337v-19.32q0-8.82,3.3-14.01a13.449,13.449,0,0,1,12.421-6.46q4.717,0,6.761,3.2a14.062,14.062,0,0,1,2.044,7.72v28.87Zm51.47-23.1a16.7,16.7,0,0,1-4.664,11.76,15.191,15.191,0,0,1-11.583,5.04,15.364,15.364,0,0,1-11.53-5.04,17.018,17.018,0,0,1,0-23.52,15.364,15.364,0,0,1,11.53-5.04,15.191,15.191,0,0,1,11.583,5.04A16.732,16.732,0,0,1,630.887,1390.87Zm-32.667,29.4h-7.488a23.917,23.917,0,0,0,47.493-3.99v-48.51h-7.338v7.76a16.009,16.009,0,0,0-1.2-1.46q-6.865-7.35-16.09-7.34a20.824,20.824,0,0,0-16.194,7.34,25.423,25.423,0,0,0,0,33.6,21.4,21.4,0,0,0,32.284,0,15.933,15.933,0,0,0,1.2-1.45v10.06A16.588,16.588,0,0,1,598.22,1420.27Z" transform="translate(-179.782 -1303.62)"/>
  <path id="Better" class="sbcls-1" d="M338.4,1471.57a7.556,7.556,0,0,1-7.53,7.45h-8.619v-14.9h8.619A7.616,7.616,0,0,1,338.4,1471.57Zm-4.264-25.81a7.247,7.247,0,0,1-7.168,7.18h-4.717v-14.36h4.717A7.188,7.188,0,0,1,334.132,1445.76Zm18.145,26.17c0-8.36-5.625-13.9-12.52-15.54,4.627-2.09,7.349-6.81,7.349-13.08,0-8.45-6.714-15.45-17.238-15.45h-21.23v61.79h24.949C345.382,1489.65,352.277,1482.56,352.277,1471.93Zm40.278,5.36H370.417v-12.45h21.23v-12.35h-21.23v-12.27h22.138v-12.36H356.809v61.79h35.746v-12.36Zm35.287-37.07h17.6v-12.36h-48.81v12.36h17.6v49.43h13.608v-49.43Zm53.342,0h17.6v-12.36H449.974v12.36h17.6v49.43h13.609v-49.43Zm57.424,37.07H516.471v-12.45H537.7v-12.35h-21.23v-12.27h22.137v-12.36H502.862v61.79h35.746v-12.36Zm19.048-9.72h0.091l14.7,22.08h17.237l-17.691-22.72c7.8-1.9,14.062-8.81,14.062-19.26,0-11.72-8.891-19.81-18.871-19.81H544.047v61.79h13.609v-22.08Zm7.258-28.99c3.992,0,8.166,3.45,8.166,9.09,0,5.91-4.174,9.18-8.166,9.18h-7.258v-18.27h7.258Z" transform="translate(-179.782 -1303.62)"/>
</svg>
